<svg width="200" height="200" viewBox="0 0 200 200" xmlns="http://www.w3.org/2000/svg">
  <defs>
    <linearGradient id="iconBg" x1="0%" y1="0%" x2="100%" y2="100%">
      <stop offset="0%" stop-color="#3B82F6"/>
      <stop offset="100%" stop-color="#2563EB"/>
    </linearGradient>
    <linearGradient id="swooshGrad" x1="0%" y1="0%" x2="100%" y2="0%">
      <stop offset="0%" stop-color="#ffffff" stop-opacity="0"/>
      <stop offset="40%" stop-color="#ffffff" stop-opacity="0.25"/>
      <stop offset="100%" stop-color="#ffffff" stop-opacity="0"/>
    </linearGradient>
    <filter id="iconGlow" x="-50%" y="-50%" width="200%" height="200%">
      <feGaussianBlur stdDeviation="6" result="coloredBlur"/>
      <feMerge>
        <feMergeNode in="coloredBlur"/>
        <feMergeNode in="SourceGraphic"/>
      </feMerge>
    </filter>
  </defs>
  <!-- Background -->
  <rect x="20" y="20" width="160" height="160" rx="32" fill="url(#iconBg)" filter="url(#iconGlow)"/>
  <!-- Motion trail swoosh (behind the L) -->
  <path d="M 22 108 Q 65 78, 110 76 Q 150 74, 178 85 L 178 94 Q 150 86, 110 88 Q 65 90, 22 116 Z" fill="url(#swooshGrad)"/>
  <path d="M 30 118 Q 70 100, 110 98 Q 145 96, 172 100" stroke="#ffffff" stroke-width="1.5" fill="none" stroke-linecap="round" opacity="0.12"/>
  <!-- L shape (on top of trail) -->
  <path d="M 58 48 L 80 48 L 80 130 L 142 130 L 142 152 L 58 152 Z" fill="#ffffff"/>
</svg>
